<svg xmlns="http://www.w3.org/2000/svg" width="40" height="56" viewBox="0 0 40 56"><path d="M28.812 53.062l.062-.131.037-.106.014-.063.038-.156.045-.103.166-.332.078-.159.029-.092.033-.141.036-.14.017-.045.038-.123.026-.11.007-.048.002-.178.001-.129.019-.094.046-.12.127-.33.034-.107.032-.091.045-.103.043-.121.009-.047.004-.048.016-.095.013-.08.008-.047.039-.14.059-.167.08-.158.078-.102.071-.066.053-.037.177-.077.11-.022.097.002.063.013.123.039.106.037.123.04.177.077.179.109.088.071.228.229.114.156.047.12.019.095.005.223-.01.181-.007.048-.017.128-.007.194-.016.095-.009.064-.007.129-.006.064-.025.224-.021.143-.011.112-.018.111-.012.08-.027.158-.005.032-.029.091-.109.197-.134.22-.127.206-.031.056-.144.213-.069.089-.12.131-.179.228-.17.215-.203.209-.076.059-.293.201-.191.12-.054.035-.072.034-.132.06-.042.024-.039.028-.147.1-.119.109-.074.029-.129-.002-.047-.01a.774.774 0 01-.238-.133l-.113-.135-.037-.072-.02-.061-.016-.079-.001-.047.018-.095.009-.047.035-.14.018-.127.043-.204.068-.163.101-.205zm-16.63-5.669l.123-.077.134-.054.147-.067c.109-.06.211-.128.295-.223l.069-.159.022-.127.012-.291-.046-.186-.023-.043-.056-.056-.145-.07-.124-.034-.097-.005-.048-.005-.128-.013h-.145v-.001h-.194l-.126.02-.221.045-.047.011-.063.011-.097.007-.047.009-.109.028-.123.038-.094.02-.094.022-.106.039-.123.038-.255.1-.504.255-.23.118-.232.114-.206.093-.207.091-.38.178-.292.172-.082.052-.097.059-.107.072-.194.146-.191.173-.039.051-.188.282-.094.151-.055.08-.176.211-.114.156-.052.1-.055.134-.015.046-.043.138-.05.136-.054.135-.011.03-.036.107-.005.129.006.081.015.062.127.204.053.061.022.024.124.103.145.068.063.015.064.01h.016l.241-.018.048-.003.145-.009.047-.009.113-.061.236-.243.027-.04.157-.205.047-.065.067-.11.17-.235.02-.025.147-.172.112-.138.02-.025.19-.174.05-.041.17-.091.112-.013.065-.002.032.004.066.063-.014.126-.144.229-.058.077-.115.175-.145.252-.029.058-.063.148-.013.046-.021.094.002.047.012.047.044.138.112.157.149.094.089.037.182.064.095.015h.032l.162-.004.094-.021.048-.006.047-.008.136-.049.258-.133.106-.073.062-.093.042-.172.011-.047.013-.063.004-.081.024-.11.039-.122.051-.118.073-.162.055-.134.04-.088.092-.206.041-.088.093-.223c.045-.116.105-.223.173-.327l.384-.579.061-.075.277-.224zm15.323 1.339l-.029.014-.05.04-.096.058-.046.013-.064.005c-.12 0-.13-.007-.207-.097l-.028-.04-.053-.081-.113-.136-.071-.036-.177-.011c-.166.004-.174.003-.337.092l-.081.053-.078.057-.11.095-.064.093-.03.075-.013.063-.005.178-.005.048-.042.156-.019.078-.01.047-.017.095v.178l.008.047.023.094.101.254.019.026.103.103.123.076.106.038.062.017.079.015.317.007.329-.006.095-.018.031-.008.108-.031.122-.04.207-.089.079-.056.045-.046.053-.08.035-.107.016-.095-.003-.145.007-.21.019-.078.013-.063-.004-.242-.011-.047-.012-.047-.043-.138a.276.276 0 00-.171-.161l-.111-.007zm-1.428-4.31l-.157.03-.123.039-.138.045-.09.034-.101.05-.041.025-.129.097-.197.139-.107.072-.068.068-.118.192-.095.222-.088.208-.058.15-.044.188-.019.078-.002.08.032.141.039.139.016.095.004.194.019.127.008.047.029.125.032.091.12.245.078.102.15.169.057.056.107.097.106.099.153.118.112.064.087.042.061.019.079.015.048.007.242.002.063-.012.063-.013.063-.014.077-.024.106-.038.107-.035.126-.025.031-.007.095-.016.177-.009.124-.033.026-.018.056-.058.049-.064.089-.135.072-.144.046-.12.04-.123.014-.096.011-.047.011-.08v-.129h-.001v-.145l-.01-.064-.013-.063-.02-.078-.027-.076-.034-.073-.062-.131-.047-.137-.035-.174-.024-.093-.061-.149-.132-.259c-.063-.127-.058-.123-.153-.226l-.022-.024-.123-.189-.037-.089-.026-.059-.123-.169-.043-.048-.182-.159-.014-.008a.438.438 0 00-.261-.058zm-4.853-6.19l-.125-.226-.031-.057-.07-.18-.122-.245a1.834 1.834 0 01-.173-.328l-.047-.137-.008-.048-.006-.097-.021-.111-.016-.079-.031-.092-.044-.138-.012-.063-.005-.145-.014-.079-.013-.047-.029-.092-.096-.186-.055-.116-.054-.185-.03-.125-.011-.047-.021-.094-.012-.063-.015-.111.003-.145v-.485l-.001-.129-.03-.141-.031-.092-.046-.188-.011-.047-.011-.08.001-.097.006-.064.012-.128.003-.145.033-.157.019-.062.018-.095-.026-.174-.044-.155-.039-.123-.048-.102-.025-.042a.64.64 0 00-.218-.189l-.102-.048-.122-.043-.047-.01-.113.005-.175.024-.127.023-.048.007-.129.006-.192.02-.048.005-.129.007-.064.009-.111.022-.063.013-.092.028-.091.032-.044.021-.102.048-.161.107a.417.417 0 00-.135.178l-.024.06-.034.091-.038.106-.039.089-.024.06-.03.075-.035.09-.072.179-.069.181-.031.091-.039.106-.038.089-.072.162-.025.042-.15.19-.133.162-.065.092-.169.216-.032.037-.128.146-.213.222-.052.062-.116.155-.096.109-.1.127-.041.05-.191.26-.093.112-.096.109-.112.138-.039.052-.092.152-.064.112-.057.133-.086.173-.119.247-.028.092-.008.031-.044.121-.073.179-.033.091-.058.133-.048.137a1.532 1.532 0 01-.17.329l-.156.264-.064.182-.009.031-.015.079-.005.129-.019.176-.006.064-.008.291v.243l-.016.144-.008.064-.007.113-.008.048-.022.127-.009.064-.021.111-.023.127-.009.064-.01.21-.01.063-.002.048.004.079-.009.08-.013.355-.007.064-.016.144-.004.323c0 .097-.003.194.024.289l.002.016.03.174.006.032.026.159.006.048.009.161.016.112.006.048.005.21.007.113.024.076.035.107.033.108.067.198.028.076.004.016.121.208.102.125.11.178.045.103.043.104.122.246.138.198.068.07.044.047.088.116.071.126.021.044.102.165.143.128.101.051.121.045.266.116.103.046.062.015.372-.001.096-.014.064-.001.112.015.566.004.323.001.242.009.016.002.192.015.226.01.047.01.047.012.138.044.203.099.044.019.126.03.095-.009a.339.339 0 00.2-.199l.041-.105.019-.078.009-.129.008-.048.001-.176-.008-.064-.008-.242-.006-.323-.018-.127-.013-.128-.009-.064-.02-.127-.01-.063-.021-.111-.01-.08-.02-.127-.011-.096-.023-.159-.02-.176-.004-.048-.003-.145v-.146l.02-.144.01-.145.012-.063.011-.047.03-.175.007-.048.009-.064.026-.143.01-.064.022-.127.01-.064.018-.111.027-.191.005-.032.028-.126.027-.109.048-.154.033-.124.008-.031.094-.187.025-.019.045-.018h.031c.076.032.092.04.129.113l.091.189.025.059.026.076.034.141.025.11.015.145.016.111.008.064.001.129.001.291.026.24.002.016.008.097.025.093.006.048.013.063.019.078.009.064.023.159.006.097.008.048.014.095.006.145.019.111.011.063.01.064.026.126.011.047.02.094.007.048.039.156.012.047.03.175.006.048.026.175.006.048.001.21-.015.079-.013.063-.023.11-.01.047-.004.21.002.242-.01.08-.042.122-.034.073-.011.047.02.24.006.032-.001.113-.007.031-.017.062-.033.108-.065.13-.028.04-.066.071-.105.123-.111.058h-.048l-.077-.022-.065-.048-.234-.223-.07-.067-.183-.159-.04-.027-.159-.08-.062-.017-.129-.008-.064-.009-.112-.015-.453-.012-.711.002v-.001l-.679.006-.501.006-.096.013-.079.014-.09.035-.076.027-.078.022-.046.013-.205.04-.126.025-.124.032-.091.032-.077.024-.088.04-.196.073-.073.033-.124.076-.093.064-.153.118-.091.067-.107.073-.096.06-.094.062-.161.109-.25.147-.256.138-.178.075-.178.076-.173.087-.055.033-.126.1-.062.073-.097.221-.018.045-.033.073-.117.283-.101.184-.062.113-.019.044-.034.174-.005.097.005.242.013.063.025.077.103.162.071.067.18.137.06.022.064.006.144.017.141.031.092.028.092.029.031.009.161.01.063-.012.168-.094.151-.146.058-.077.026-.041.107-.161.097-.186.035-.073.08-.14.152-.228.02-.025.106-.1.148-.125.079-.056.23-.117.031-.008.145.002.064.046.025.059.002.016-.034.124-.038.071-.191.26-.02.025-.06.131-.013.063-.045.121-.061.114-.018.078.032.174.039.123.051.118.066.092.153.144.069.041.172.042.048.008.127.02.145.002h.21l.095.017.136.05.106.039.141.029.291-.007.047-.01.157-.081.135-.115.011-.012.127-.187.043-.087.143-.289.123-.188.052-.062.086-.096.037-.031.101-.051.047.001.03.011.047.042.041.154-.002.097-.012.063-.013.063-.009.113-.015.063.002.047.017.062.022.077.061.132.108.16.122.129.042.023.159.028.048.005.129.006.095.016.031.007.452.016.291-.002.34-.003.598-.005h.032l.143-.02.016-.003.19-.037.077-.022.136-.05.12-.047.077-.023.11-.022.08-.011.111-.02.08-.01.127-.019.096-.013.126-.029.107-.034.109-.029.125-.03.031-.008.094-.02.113-.008.048-.007.096-.013.339-.01.048-.006.111-.018.112-.014.111-.022.063-.014.107-.037.081-.052.036-.033a.532.532 0 00.139-.196l.036-.089.03-.109.033-.157.015-.063.013-.063.023-.143.004-.032-.004-.178-.025-.208-.02-.094-.033-.174-.003-.016-.006-.064-.003-.081.005-.339a2.724 2.724 0 00-.004-.404l-.018-.078-.031-.092-.035-.107-.022-.094-.024-.126-.011-.112-.013-.128.002-.145.01-.064.012-.08.005-.129.018-.128.007-.048-.004-.259-.01-.047.001-.048.012-.063.007-.113.005-.032.075-.213a1.36 1.36 0 01.197-.332l.052-.081.148-.268.093-.188.11-.251.106-.181.072-.108a.824.824 0 01.18-.206l.038-.029.167-.099.174-.084.105-.04.078-.019.031-.008.095-.018.194-.006.079-.012.063-.014.078-.02.223-.092.126-.1.028-.04.037-.139-.003-.097-.01-.047-.103-.182-.201-.253-.086-.072-.118-.051-.062.01-.049.042-.171.172-.118.084c-.154.077-.16.08-.324.079l-.275-.013-.031-.007-.046-.013-.109-.028-.105-.041-.331-.168-.068-.043-.072-.035-.162-.072-.25-.112-.131-.063-.095-.061a.552.552 0 01-.18-.183l-.079-.102-.034-.035-.139-.198-.062-.149-.022-.094-.008-.031-.026-.093-.028-.109-.054-.152-.064-.131-.034-.073-.028-.076-.013-.063.003-.162.001-.453-.031-.157-.04-.122a.98.98 0 00-.212-.34l-.089-.094-.041-.05-.07-.108-.153-.228-.072-.126-.106-.235-.036-.072-.042-.122-.013-.079-.009-.08-.093-.204-.158-.262zM38.012 16.63l-.021-.175-.006-.048-.007-.162-.003-.097-.02-.095-.007-.064-.01-.047-.041-.122-.045-.138-.038-.123-.048-.137-.011-.047-.027-.093-.012-.096-.004-.016-.017-.127-.007-.21-.017-.112-.007-.048.002-.145.008-.048-.002-.176-.011-.08-.026-.159-.009-.064-.01-.064-.022-.127-.013-.096-.021-.127-.009-.064-.024-.127-.015-.063-.008-.031-.037-.19-.016-.062-.066-.164-.128-.261-.093-.188-.04-.106-.016-.062-.025-.093-.012-.096-.008-.031-.014-.079-.001-.194-.003-.178-.013-.063-.036-.107-.042-.122a.97.97 0 00-.132-.275l-.125-.188-.098-.185-.071-.18-.02-.044-.11-.179-.063-.112-.052-.118-.07-.163-.079-.211-.029-.109-.032-.108-.028-.092-.028-.109-.037-.14-.044-.104-.209-.326-.069-.089-.134-.162-.119-.173-.146-.193a1.171 1.171 0 01-.183-.265l-.15-.268-.063-.094-.126-.188-.136-.201-.07-.109-.147-.269-.059-.096-.046-.066-.074-.085-.15-.19-.175-.271c-.046-.085-.095-.17-.105-.269l-.004-.016-.023-.11-.027-.126-.029-.092-.032-.091-.063-.148-.083-.119-.214-.197-.084-.075-.17-.194-.052-.082-.081-.158-.065-.092-.179-.137L32.598 4l-.158-.112-.021-.024-.121-.152a.667.667 0 00-.185-.178l-.065-.048-.099-.082-.085-.097-.154-.141-.081-.052-.212-.117a2.752 2.752 0 01-.349-.202l-.229-.119-.166-.063-.23-.117-.149-.097-.225-.127-.182-.062-.015-.005-.095-.018-.113-.003-.501-.002-.162-.001-.048-.004-.159-.029-.031-.01-.122-.042-.123-.038-.139-.04-.122-.04-.094-.02-.226-.007h-1.132l-.226.007-.064.01-.125.031-.14.037-.095.018-.113.006-.11.025-.093.024-.203.049-.031.007-.095.016-.194.006-.079.014-.047.013-.093.027-.134.055-.13.064-.231.115-.317.159-.112.064-.115.059a1.2 1.2 0 00-.26.161l-.193.171-.114.121-.052.165.035.089.001.032.035.107.029.126.023.11.018.111-.001.064-.021.111-.01.047-.041.122-.046.179-.062.146-.024.021-.051.039-.112.063-.09-.121-.065-.112-.109-.083-.092-.029-.102-.049-.029-.013-.074-.045-.101-.02-.118.048-.095.118-.101.121-.152.144-.171.17-.06.076a1.562 1.562 0 01-.259.242l-.085.074-.084.098-.053.061-.143.131-.056.057-.066.092-.169.256-.101.183-.044.086a2.413 2.413 0 01-.277.377 1.115 1.115 0 00-.181.246l-.042.087-.026.059a.757.757 0 01-.232.325l-.012.011-.09.068-.138.085-.054.035-.214.22-.114.156-.152.144-.289.176a1.966 1.966 0 00-.318.19l-.164.103-.168.097-.171.121-.038.029-.097.057-.14.036-.113.005-.095.018-.112.013-.046.014-.203.05-.047.012-.063.012-.081.005-.095.018-.042.008-.109.029-.171.045-.031.009-.062.016-.095.017-.11.025a.481.481 0 01-.222.029l-.142-.025-.047-.01-.226-.004-.11.024-.108.032-.065.011-.128.014-.111.017-.064.007-.155.043-.078.019-.047.01-.095.016-.42-.001-.079-.015-.031-.008-.109-.027-.109-.027-.082-.015-.129-.007-.048-.007-.096-.011h-.437l-.21-.005-.126-.024-.094-.024-.11-.026-.046-.014-.032-.006-.208.017-.094.021-.199.065-.107.036-.124.036-.11.024-.127.02-.146.002h-.517l-.242.004-.095.017-.031.008-.124.033-.171.045-.015.005-.062.016-.141.032-.062.018-.154.046-.064.01-.142.031-.123.04-.12.048-.117.053-.135.052-.122.042-.107.037-.106.039-.107.035-.27.105-.26.131-.111.067-.188.126-.26.127-.21.082-.186.127-.07.067-.264.262a.92.92 0 01-.278.191l-.104.045-.253.141-.107.072a.747.747 0 00-.22.21l-.171.169a.944.944 0 00-.248.252.845.845 0 01-.228.226c-.146.096-.145.097-.266.212l-.058.056-.036.033-.187.155-.112.115-.06.095-.073.144-.074.106-.033.036-.237.265-.061.075-.136.135a1.75 1.75 0 00-.258.244l-.049.064-.12.21-.085.191-.054.185-.008.097-.016.079-.059.15-.115.195-.059.077-.115.114-.121.151-.032.056-.141.235-.105.182-.04.088-.026.076-.031.109-.009.047-.018.095-.035.107-.069.163-.069.181-.037.157-.021.077-.043.122-.028.093-.008.113-.002.097-.017.095-.045.121-.046.12-.02.094-.001.177.002.113-.024.126-.053.135a.608.608 0 00-.055.234l-.003.275-.017.176-.005.048-.033.157-.018.062-.019.078-.008.048-.028.126-.031.125-.015.046-.039.123-.014.129-.01.064-.009.064v.194l.004.048.021.176.009.08.023.127.022.11.006.032.034.157.029.092.026.093.031.092.052.219.011.047.001.144-.008.031.013.192.006.032.033.107.047.103.054.117.057.134.04.123.055.151.147.305.154.227.224.296.063.094.059.076.122.129.162.18a.685.685 0 00.205.181l.085.047c.097.05.182.115.245.205l.009.013.172.144.101.051a.924.924 0 01.25.175l.253.25.188.153.042.023.15.059.241.092.074.032.135.052.015.007.046.013.062.017.063.015.16.023.048.005.097.004.124.034.126.072.1.053.2.063.23.073.059.025.091.032.092.031.092.03.092.031.093.028.047.011.129.009.128.015.096-.003.08-.012.129-.008.063-.014.155-.044.048-.006.145-.003.129.003.224-.024.064-.008.259-.007.16-.017.032-.004.21-.01.323.014.144.017.598-.001.112-.014.048-.006.355-.013.453.011h.291l.129-.006.258.006.063.012.079.016.063.012.122.043.103.046.137.049.095.017.032.006.11.022.126.026.109.027.107.035.107.035.096.013.031.007.095.015.194.007.048.006.139.043.149.062.168.056.126.025.111.018.047.01.11.025.047.011.08.011.128.017.129.003.158.028.138.044.088.041.106.038.063.014.093.025.096.013.031.01.063.014.125.029c.095.027.18.071.251.14l.163.157.06.054.116.087.127.07.071.038.091.067.096.109.062.075.297.297.1.082.197.19.143.175a.975.975 0 01.156.244l.007.015.097.273.029.126.005.048.004.194v.517l.001.146.026.175.003.016.071.161.071.088.027.017.108.031.175.028.048.004.566.008.501.004.436-.008.079-.016.048-.008.064-.006.043-.02.118-.152.033-.074.039-.14.019-.061.075-.143.093-.17.044-.138.032-.158.007-.031.068-.198.09-.153.019-.026.165-.258.069-.128.077-.142.144-.252.023-.042.152-.188.172-.171.163-.2.046-.066.138-.135.152-.091.273-.139.085-.047a1.49 1.49 0 00.317-.248l.173-.17.073-.064.158-.112.158-.112.089-.07.097-.085.064-.05.248-.206.121-.107.103-.077.105-.075.152-.12.232-.2.091-.067.253-.173.125-.102.114-.114.091-.067.322-.149.06-.024.123-.038.142-.029.137-.046.139-.082.134-.089.121-.08.063-.051.091-.113a.62.62 0 00.108-.25l.033-.158.008-.031.027-.11.032-.108.027-.125.007-.097.015-.16.007-.21.01-.063.029-.109.023-.06.012-.047.022-.061.02-.061.037-.107.029-.092.026-.11.016-.095.003-.243.003-.21.014-.079.009-.031.032-.125.028-.092.015-.112.008-.048.013-.112.007-.307.009-.064.023-.127.019-.095.009-.047.028-.191.006-.064.007-.275.004-.113.018-.079.006-.048.02-.078.036-.107.045-.188.01-.047.06-.167.05-.119.041-.171.005-.048.03-.126.038-.106.038-.089.014-.046.037-.14.098-.22c.066-.099.12-.204.163-.315l.03-.075.039-.089.035-.107.016-.046.023-.094.034-.108.009-.031.045-.155.08-.14.055-.079.04-.05.108-.141.129-.144.033-.035.122-.15.094-.131.118-.153.132-.183.057-.057.105-.076.072-.037.157.008.071.064.063.13.007.031a.306.306 0 01-.032.188l-.04.07-.048.065-.072.143-.036.107-.02.044-.048.169-.003.016-.025.126-.015.063-.044.138-.034.124-.047.171-.035.107-.035.107-.045.138-.04.139-.009.031-.055.168-.055.168-.032.108-.025.093-.031.092-.123.383-.012.03-.028.109-.031.108-.012.063-.006.113-.007.048-.027.126-.032.125-.029.141-.013.08-.008.064-.002.129-.007.194-.009.047-.032.108-.033.124-.02.094-.005.194v.501l-.003.194-.005.048-.018.128-.011.063-.034.108-.032.125-.019.095c-.008.21-.006.42.002.63l.008.048.007.098-.011.118-.006.219-.065.354.02.379.02.087-.006.129.021.208.005.048.01.21.007.064.001.111.005.143.011.063.008.162.006.064.014.144.006.404.02.127.009.047.024.159.006.048.008.113.013.063.034.108.028.109.023.094.013.046.151.304.027.04.141.177.123.15.157.244.137.238.135.201.07.066.267.151.12.048a.348.348 0 00.218.042l.016-.001.404-.003.129-.002.047-.009.062-.019.282-.119.081-.053.257-.167.084-.048.17-.092.12-.046.152-.054.165-.065.26-.127.113-.062.13-.065.139-.082.22-.135a.94.94 0 00.331-.254l.044-.048.068-.069.104-.077.057-.031.152-.092.134-.138.072-.126.046-.085.037-.053.133-.117.174-.117a.77.77 0 00.254-.266l.059-.096.162-.178.159-.137.182-.16.081-.079a.59.59 0 00.123-.225l.056-.151a.712.712 0 01.21-.302l.093-.09.076-.104.08-.159.064-.112a1.49 1.49 0 00.16-.316l.062-.131.175-.309.112-.177.082-.156.029-.092.038-.123.064-.131.04-.07.046-.085c.065-.148.136-.293.216-.433l.051-.135.029-.109.064-.182.057-.097.082-.157.018-.062.014-.112.017-.095.008-.097.03-.109.041-.156.021-.11.005-.097.007-.048.027-.126.033-.125.021-.061.041-.205.012-.047.094-.291.035-.107.041-.122.029-.109.005-.015.029-.142.016-.095.029-.092.033-.141.014-.063.008-.048.002-.081.002-1.035.004-.307.015-.079.081-.228.013-.03.042-.122.005-.113z" fill="#fff"/><path d="M28.822 24.402l.025.077.009.047-.004.226-.006.032-.017.095-.021.127-.007.048v.113l.013.079.019.095.041.156.047.137.041.105.05.101.167.332.036.072a.718.718 0 00.253.288c.108.062.2.146.287.235l.035.034a.74.74 0 00.259.16l.107.037.141.029.388-.004.095-.019.031-.008.11-.026.141-.035.048-.008.063-.012.122-.042.274-.137.08-.055.128-.123.169-.123.057-.03.218-.138.137-.085.151-.057.079-.014.159-.027.065-.004.048-.008.111-.017.032-.002.11-.023.137-.049.118-.053.106-.04.124-.036.061-.021.129-.091.016-.028.037-.156.005-.081.016-.079.009-.031.062-.2.036-.09.034-.073.1-.147.1-.165.075-.143.126-.168.067-.091.06-.148.025-.142.025-.142.046-.154.084-.192.032-.074.037-.107c.032-.114.077-.223.132-.329l.066-.13.119-.265.045-.138.065-.182.096-.187.08-.121.072-.107.08-.14.046-.121.011-.047.012-.063.015-.095.005-.178.02-.111.026-.11.036-.107.01-.031.04-.173.08-.176.028-.04.091-.171.027-.092.012-.047.032-.108.025-.093.024-.077.026-.159.003-.081v-.259l.006-.242.019-.095.038-.123.029-.109.009-.047.008-.129.017-.192.009-.161.016-.079.029-.109.027-.11.014-.046.008-.048v-.145l-.004-.032-.024-.175.004-.21.005-.032.029-.191.009-.047.016-.111v-.194l.001-.162.021-.111.038-.14.008-.048.011-.096.016-.16.008-.291.007-.064.016-.192-.003-.032-.015-.192.005-.048.01-.241-.013-.063.009-.177.007-.064.003-.162.002-.372.004-.129.007-.048.025-.143.007-.048.022-.143.022-.127.006-.032.006-.21-.019-.095-.012-.047-.032-.108-.072-.126-.091-.113-.091-.064-.074-.031-.157-.029-.048.008-.238.1-.151.093-.165.13-.211.201-.221.214-.102.079-.103.044-.125.031-.079-.006-.06-.024c-.162-.078-.154-.071-.261-.184l-.046-.045-.113-.06-.094-.023-.032.002-.075.03-.086.045a.376.376 0 00-.151.142l-.176.308-.023.043-.089.134-.117.086-.03.009-.097.004-.122-.037-.031-.036-.025-.093-.006-.145-.002-.145-.033-.206-.007-.014-.075-.059h-.016l-.045.017-.077.057-.088.116-.079.122-.135.239-.066.129-.08.121-.072.126-.17.312-.051.083-.073.144-.031.074a.552.552 0 01-.151.207l-.112.093-.048.043-.155.206c-.052.093-.13.258-.169.366l-.057.151-.051.136-.061.166-.117.229-.121.209-.024.059a1.338 1.338 0 01-.142.289l-.092.188-.147.287-.077.159-.056.134-.06.132-.077.229-.033.108-.018.045-.089.242-.015.046-.038.173-.02.061-.106.199-.109.233-.036.107-.037.106-.035.107-.036.107-.046.171-.027.142-.003.178v.647l-.002.162-.016.111-.006.032-.051.203-.048.137c-.033.103-.08.199-.14.29l-.118.192-.055.117-.044.121-.113.336-.035.107-.031.091-.035.107-.016.062-.036.157-.032.174-.011.264c-.006.07.062.284.051.416-.016.138.003.438.052.546zm4.634-8.672v-.016h.002v-.048l.019-.078.049-.101.023-.109-.006-.113.003-.08.013-.046.07-.107.067-.069.048-.065.054-.059.08-.054.06-.02.064-.002.086.037.022.023.023.058-.025.125-.092.17-.043.068-.039.088-.036.14-.037.123-.025.093-.036.123-.017.027-.157.137-.045.017-.058-.019-.043-.085-.007-.031-.017-.127zm-.456.652l.016-.028.087-.094.101-.04h.018l.046.004.015.005.069.102.001.048a.229.229 0 01-.092.179l-.085.044-.064.007-.115-.048-.026-.056.029-.123zM19.076 5.231l.034.084-.069.103-.099.077-.106.035-.06.021-.215.042-.212.031-.108.009-.149.013-.108.003-.106-.011-.087-.017-.059-.015a.62.62 0 00-.254.007l-.064.014-.041.014-.05.03-.07.032-.062.021-.108.011-.065-.078.11-.266.129-.217.164-.178.113-.07.145-.052.15-.026.061-.01.074-.004c.173.009.34.033.508.075l.048.018.141.06.138.062.031.011.156.081.046.033.044.057zm-8.81 15.03l-.323.004-.436-.004-.095-.016-.047-.01-.175-.029-.109-.028-.148-.062-.081-.053-.121-.08-.07-.04-.168-.096-.103-.1-.067-.146-.02-.061-.009-.047.001-.113.009-.047.013-.047.016-.096.043-.121.046-.121.057-.115.14-.217.036-.053.156-.185.068-.069.121-.106.25-.147.22-.1.104-.045.076-.027.107-.034.031-.008.125-.031.108-.031.096-.008.095-.015.112-.012.125-.029.047-.013.378-.138.123-.04.106-.037.031-.009.15-.059.137-.047.061-.02.157-.034.048-.005.159-.024.111-.02.16-.002.159.024.094.019.031.008.187.049.107.037.107.037.106.037.107.035.181.068.161.074.168.095.113.062.114.061.182.133.127.124.074.105.059.133.036.107.009.047.005.21-.042.187-.043.104-.043.087-.132.202-.05.064-.178.188-.065.048-.317.16-.263.076-.142.027-.11.022-.016.004-.096.014-.093.025-.109.03-.094.023-.108.032-.23.072-.136.049-.12.046-.109.03-.096.008-.356.007-.112.011-.048.006-.162.004-.708.002zm7.731-7.378v.178l.014.095.012.063.025.11.036.14.007.064.019.111.006.032.004.274-.013.063-.05.136-.056.185-.01.096-.018.078-.131.258-.161.202-.069.068c-.07.069-.15.122-.236.168l-.116.057-.136.049-.032.005-.242-.004-.047-.01-.047-.013-.152-.05-.177-.111-.065-.048-.136-.158-.082-.192-.055-.151-.033-.108-.026-.126v-.032l.047-.187.034-.124.008-.048.012-.08.016-.095.005-.081.005-.032.048-.137.039-.07.072-.107.097-.203.034-.107.039-.106.037-.107.019-.062.059-.167.038-.089.038-.089.071-.126.092-.112.059-.055.079-.056.084-.048.135-.051a.25.25 0 01.204.005l.091.033.188.124a.68.68 0 01.223.311l.039.106.03.092.023.11.002.129zm1.608.534l.009-.166.012-.063.014-.079.004-.097.008-.096.047-.137.058-.15.014-.046.041-.172.01-.03.039-.123.031-.125.009-.047.038-.156a.33.33 0 01.129-.18l.028-.016.06-.022.062-.015h.307l.062.015.045.017.044.02.143.104.137.113.126.125.119.109.082.077.088.115.086.172.087.208.094.24.025.077.019.078.019.127v.064l-.016.095-.008.113-.008.047-.036.124-.059.167-.028.058-.151.208-.137.137-.104.123-.107.12-.092.064a.45.45 0 01-.262.065l-.113-.007-.047-.01-.122-.041-.121-.043-.188-.09-.175-.115-.039-.029a.465.465 0 01-.167-.232l-.031-.108-.01-.063-.023-.127-.01-.064-.023-.126-.008-.047-.011-.16zm19.881 3.194l-.016-.079-.02-.095-.008-.031-.035-.174-.029-.109-.015-.128-.003-.016-.015-.112-.004-.081-.024-.093-.077-.142-.073-.125c-.053-.113-.053-.096-.057-.215v-.097l.005-.307.006-.21-.004-.242-.023-.127-.034-.141-.008-.048-.011-.064-.021-.143-.004-.145-.022-.175-.004-.032-.031-.141-.039-.123-.038-.089-.063-.148-.046-.137-.013-.144-.004-.097-.013-.063-.014-.046-.064-.13-.108-.141-.105-.181-.01-.03-.029-.126-.008-.113-.004-.129-.004-.048-.041-.156-.037-.107-.009-.031-.029-.175-.006-.081-.016-.062-.076-.142-.12-.245-.114-.267-.046-.085-.056-.134-.079-.177-.08-.121-.019-.026a.94.94 0 01-.143-.287l-.044-.121-.119-.229-.111-.215-.013-.047-.036-.141-.048-.137-.044-.104-.14-.236a2.276 2.276 0 01-.224-.373.994.994 0 00-.22-.297l-.047-.045c-.098-.096-.111-.1-.182-.263l-.006-.015c-.066-.142-.077-.143-.169-.233l-.037-.032-.109-.096-.47-.467-.128-.124-.089-.068-.079-.056-.185-.155-.09-.113-.154-.207a1.39 1.39 0 01-.186-.282l-.098-.167-.075-.124-.068-.129-.082-.158a.812.812 0 00-.186-.242l-.075-.061-.056-.058-.096-.149-.139-.217-.07-.089-.063-.075a1.156 1.156 0 00-.272-.273.942.942 0 01-.214-.218l-.162-.221-.092-.112-.093-.09-.206-.206-.101-.104-.073-.063-.208-.179-.22-.19-.039-.028-.108-.071-.18-.136-.143-.106-.086-.043-.124-.035-.155-.044-.085-.046-.154-.117-.049-.042-.273-.172-.246-.122-.28-.161-.17-.093-.03-.011-.141-.034-.188-.044-.171-.047-.08-.007-.356-.004-.191-.024-.125-.031-.139-.042-.137-.047-.138-.044-.093-.027-.112-.015-.031-.008-.064-.01-.145-.002-.268.047-.063-.01-.292.037-.124-.033-.111-.02-.162.001-.143.021-.048.007-.129.001-.111-.017-.032-.006-.129-.002-.032.004-.171.047-.188.044-.047.011-.062.016-.124.032-.17.05-.079.017-.064.01-.11.027-.031.009-.383.125-.223.093-.108.07-.119.083-.098.056-.074.031-.099.054-.145.126-.082.075-.082.097-.165.142-.201.135-.074.063-.254.225-.132.162-.162.201-.15.225c-.04.081-.142.127-.225.135-.142.013-.223.074-.297.092a1.23 1.23 0 00-.416.215c-.271.29-.365.419-.47.584-.105.165-.135.285-.03.314l.24-.075c-.045.18-.27.359-.404.479l-.225.27c-.15.135-.187.247-.225.299l-.15.18-.143.12-.255.253-.04.069-.075.085-.068.067-.109.119-.056.058a1.7 1.7 0 00-.224.276l-.17.235c-.077.105-.17.194-.267.28l-.159.137-.109.096-.17.123-.217.168-.151.122-.07.039-.138.045-.125.032-.123.039-.117.055-.189.092-.073.035-.15.061-.047.012-.047.009-.127.023-.065.004-.047.009-.095.019-.063.014-.108.033-.11.025-.078.022-.111.021-.125.032-.139.04-.145.011-.048.001-.372.002h-1.148l-.372-.003-.21-.009-.048-.008-.112-.015-.275-.008-.242-.001-.129.003-.143-.021-.063-.012-.063-.012-.111-.019-.194-.004-.192-.019-.032-.004a2.645 2.645 0 00-.436 0l-.048.008-.176.001-.048-.008-.178-.004-.047.008-.137.048-.121.045-.093.024-.11.025-.112.016-.015.005-.095.018-.096.013-.095.017-.159.024-.048.007-.125.012-.047.008L9.7 8.5l-.137.047-.107.035-.124.038-.077.022-.139.04-.142.03-.174.033-.032.004-.11.026-.225.085-.207.09-.186.096-.095.062-.158.081-.155.044-.125.029-.229.075-.13.063-.432.218-.153.09-.324.215-.051.039-.217.193-.229.228-.138.137-.192.147-.057.031-.1.053-.078.057-.176.19-.084.098-.217.216-.047.044-.237.195-.073.085-.074.144a.59.59 0 01-.166.235l-.035.034-.109.139-.04.07-.157.225-.156.205-.071.108-.028.039a2.23 2.23 0 01-.361.346l-.193.194-.06.076a1.49 1.49 0 01-.236.22l-.114.113-.088.135-.057.097-.141.235-.14.236a.75.75 0 00-.11.232l-.023.077-.017.062-.09.224-.052.169-.042.205-.035.107-.037.124-.047.137-.043.139-.146.41-.018.062-.051.153-.045.155-.027.076-.021.061-.024.077-.039.123-.008.031-.03.142-.042.172-.027.076-.027.076-.024.077-.127.313-.027.059-.044.121-.014.095-.005.048-.019.176-.006.113-.008.048-.029.109-.038.123-.022.094-.011.063-.022.094-.013.047-.035.107-.027.11-.02.111-.003.21v.323l-.003.145-.006.048-.026.126-.032.125-.031.141-.006.032-.018.128v.695l.019.16.008.064.014.063.029.109.029.125.023.175v.162l.005.226.006.048.043.138.124.28.041.122.009.047.033.141.056.134.054.099.064.13.023.077.037.157.107.197.141.177.036.053.059.096.077.104.045.046.107.073.197.14.026.019.156.116.151.121.089.093.108.161.147.212.118.154.205.227.05.041.117.086.133.091.16.076.046.016a.672.672 0 01.235.138l.164.156c.086.082.18.154.288.205l.132.06.045.016.206.038.048.006.141.036.11.026.048.008.127.022.064.009.108.032.107.036.122.043.164.066.196.113.189.123a.58.58 0 00.236.099l.141.033.125.033.14.038.111.019.34.004h1.407l.323-.004.158-.027.172-.043.158-.03.113-.008.128-.014.226-.009.064-.009.143-.024.079-.015.047-.01.113-.009.048-.008.112-.015.159.02.032.005.11.025.124.035.129.011.162.003h.323l.065.002.192.021.124.034.156.111.071.126.02.062.01.047c.002.086.01.172-.021.256l-.01.064-.01.064-.016.111-.006.194-.018.111-.008.048-.001.194.004.032.037.123.121.228.217.321.046.066.158.162.051.039.178.073.126.024.065.004.11.023.093.027.092.029.062.015.144.021.113.002.143-.025.047-.013.276-.09.091-.033.087-.042.106-.073.095-.088.112-.093.082-.078.076-.104.097-.239.02-.078.031-.174.003-.129.006-.048.012-.096.006-.113.034-.124.029-.057.096-.107.041-.027.103-.045.125-.026a9.97 9.97 0 01.647 0l.032.002.032.004.141.036.077.025.107.035.03.012a.752.752 0 01.229.117l.124.126.028.04a.628.628 0 01.103.235l.043.172.016.079.008.097.01.047.015.079.008.129.011.064.006.032-.012.209-.007.064-.012.291-.003.048-.026.159-.004.016-.045.121-.094.188-.081.12-.066.071-.131.093-.204.098-.074.032-.179.073-.074.032-.043.021-.164.104-.118.084-.045.046-.051.083-.01.03.012.143c.048.127.12.241.191.354l.14.178.142.176.044.068.043.153-.002.081-.005.048-.019.128-.022.094-.036.141-.006.048-.003.145-.003.129-.015.079-.01.047-.027.109-.106.216-.109.14-.072.107-.097.204-.067.128-.071.087-.083.076-.1.104-.073.126-.099.166-.06.076-.089.135-.046.137-.003.016-.056.133-.046.066-.045.046-.098.084-.097.128-.103.183-.096.187c-.047.138-.12.264-.184.395l-.122.246-.047.103-.037.107-.039.14-.013.046-.064.165-.068.164-.066.164-.063.166-.037.107-.038.106-.038.123-.034.108-.059.184-.027.076-.086.26-.018.062-.027.093-.031.092-.044.104-.048.12-.011.047-.006.113-.018.144-.008.064-.029.125-.053.169-.017.062-.022.16-.004.048-.003.275.001.146.015.144.004.032.001.404-.006.048-.014.112-.008.161-.009.047-.032.108-.023.094-.012.063-.014.079-.01.42.007.21.017.079.028.092.02.078.01.064.018.127.005.178.023.159.005.032.028.142.02.094.019.078.02.094.012.063.008.064.049.17.053.169.02.11-.003.129-.008.048-.014.112.002.146-.008.178-.006.032-.062.113-.138.137-.126.069-.076.026-.091.032-.106.039-.092.029-.079.016-.142.028-.032.006-.143.023-.078.017-.063.014-.095.02-.031.009-.173.037-.109.027-.125.032-.093.026-.112.016-.048.008-.127.017-.113.005-.048.007-.141.036-.094.023-.093.026-.125.032-.173.038-.124.034-.137.046-.046.013-.109.03-.152.054-.163.07-.072.036-.089.038-.107.037-.108.032-.125.031-.163.068-.055.034-.251.145-.347.171-.21.119-.222.132-.137.085-.038.03-.132.134-.148.171-.124.128-.053.061-.195.237-.058.056-.204.184-.091.092-.101.105-.119.153-.024.042-.078.16-.078.195-.073.179-.039.088-.115.231-.082.176-.016.045-.026.093-.012.063-.022.078-.013.08-.011.03-.055.218-.004.016-.02.127.001.21.007.048.035.107.06.132.074.105c.09.093.179.187.284.263l.155.116.168.096.152.051.153.051.169.052.078.021.063.016.031.007.16-.01.064-.01.178-.001.063.012.108.033.11.026.126.024.08.012.095.016.175-.022.123-.038.045-.018.123-.039.112-.01.081-.001.453-.002.144-.014.08-.007.291-.008.08-.01.127-.02.291-.008h.792l.194.004.129.01.139.042.122.042.108.034.093.026.092.029.079.016.162.002.145-.008.162.001.157.031.155.045.107.036.11.026.031.01.063.014.095.019.109.028.108.034.11.025.126.028.032.006.137.049.132.061.074.033.092.031.031.009.175.027h.178l.144-.02.126-.027.093-.028.111-.019.047-.012.096-.002.127.021.032.006.14.039.094.021.128.017.048.005.259.003.162.007.048.008.17.05.109.031.129.012.112.014.048.006.129.008.048.008.141.036.111.019.097-.004.156-.04.078-.018.129-.013.127-.02.109-.027.187-.05.11-.022.048-.002.113-.004.111-.019.032-.003.142-.027.032-.006.258-.006.125.029.276.089.123.039.016.003.145.01.194-.004.079-.017.107-.037.148-.063.119-.05.14-.036.142-.025.081-.006.141-.032.122-.041.123-.037.292-.093.079-.016.129-.006.291-.003h.226l.064-.005.144-.02.078-.019.186-.051.031-.009.079-.015.129-.004.42-.002.162-.002.064-.007.127-.02.064-.009.143-.023.206-.037.122-.042.129-.066.177-.113.084-.048.223-.094.122-.041.123-.036.079-.014.047-.012.096-.003.111.021.109.029.11.025.048.007.097.002.111-.017.079-.017.077-.024.079-.018.095-.019h.372l.11.023.108.032.125.03.096.01c.216.006.431.006.647 0l.048-.003.032-.004.141-.034.155-.043.16-.019.032-.005.11-.023.031-.008.135-.053.167-.058.032-.001.108.031.027.017a.315.315 0 01.129.216l.012.047.013.096-.007.113-.028.126-.035.107-.032.091-.133.294-.008.014-.056.116-.064.131-.111.178-.118.212-.091.206-.038.089-.051.119-.054.117-.055.117-.048.102a3.477 3.477 0 01-.191.409l-.05.083-.09.153-.058.168-.01.113.006.194.005.032.061.166.072.107.12.107.206.156.128.067.061.02.047.01.158.029.096.01.307-.003.143-.022.032-.006.096-.01.094-.022.094-.023.105-.04.102-.047.136-.051.206-.035.123-.035.111-.066.234-.142.014-.008a.895.895 0 00.224-.157l.149-.148.078-.082.17-.149.169-.172.159-.182.071-.066.424-.422.054-.06.055-.08.094-.13.077-.083.059-.076.036-.054.08-.101.079-.101.082-.139.032-.056.086-.117.064-.093.072-.144.035-.09.029-.075.035-.09.044-.121.063-.131.052-.101.093-.188.032-.074.057-.151.015-.046.049-.17.021-.094.013-.096.016-.111.007-.162.017-.111.007-.048.002-.259-.006-.048-.023-.127-.032-.141-.037-.089-.078-.141-.12-.21-.063-.113-.204-.291-.042-.049-.104-.102-.154-.117-.068-.044-.355-.192-.194-.08-.123-.039-.123-.038-.14-.037-.079-.016-.162-.004-.178-.003-.079-.014-.031-.008-.172-.039-.173-.037-.064-.01-.096-.012h-.356l-.194-.003-.129-.008-.016-.003-.124-.037-.154-.047-.064-.01-.031-.009-.062-.016-.188-.044-.136-.049-.207-.088-.091-.067-.087-.116-.056-.116-.023-.077-.006-.032-.027-.158-.002-.291.006-.517-.005-.21-.01-.064-.023-.094-.028-.092-.04-.173-.007-.031-.021-.111-.004-.032-.031-.125-.017-.045-.045-.103-.059-.133-.052-.135-.094-.24-.018-.062-.02-.111v-.032l.021-.127.017-.095.001-.048-.011-.047-.014-.096-.03-.092-.085-.209-.021-.043-.068-.163-.014-.063-.007-.113-.022-.111-.006-.048-.013-.047-.017-.045a.703.703 0 00-.156-.243l-.153-.166-.231-.249-.171-.147-.088-.07-.114-.114-.09-.093-.114-.09-.148-.097a.654.654 0 01-.185-.178 1.375 1.375 0 00-.283-.287l-.113-.091-.183-.159-.18-.137-.188-.125-.105-.074-.199-.165-.053-.037-.108-.071-.289-.206a.902.902 0 01-.208-.201l-.137-.136a.882.882 0 01-.202-.207 1.503 1.503 0 00-.287-.282l-.183-.181-.193-.217-.116-.113-.041-.05-.072-.195-.026-.11-.057-.167-.136-.238-.053-.081-.046-.085-.041-.172-.013-.063-.02-.078-.015-.046-.053-.118-.137-.275a2.365 2.365 0 00-.198-.332l-.146-.232-.167-.332-.048-.12-.034-.108-.007-.048-.003-.065-.003-.113-.025-.126-.005-.048-.015-.063-.012-.047-.032-.158-.032-.108-.031-.075-.035-.09-.04-.188.013-.274.008-.031v-.16l-.01-.047-.009-.339v-.372l-.003-.048.012-.291.007-.031.014-.095.002-.178.003-.243.022-.126.05-.187.043-.121.037-.107.04-.122.039-.123.035-.107.042-.122.015-.062.006-.161-.032-.157-.038-.123-.036-.124-.046-.121-.016-.062-.017-.062-.011-.047-.01-.129-.025-.143-.002-.016-.007-.031-.04-.139-.019-.094v-.145l.023-.11.04-.122.04-.123.07-.18.181-.378.132-.24.089-.135.175-.29.15-.249.059-.077.234-.308.122-.17.09-.093.227-.18.153-.09.1-.053.237-.167.151-.147.192-.173.049-.042.039-.028.094-.063.231-.176.192-.148.067-.045.244-.185.158-.112.029-.014.165-.065.121-.044.117-.054.103-.047.121-.044.08-.012.048-.008.111-.016h.21l.08.01.079.014.123.037.084.048.131.141.134.239.098.204.101.22.025.059.042.122.035.107.048.12.008.031.046.137.043.122.042.139.059.15.091.152.115.175.107.161.111.178.064.112a.776.776 0 00.195.235l.186.155a.931.931 0 00.278.161c.097.034.188.08.273.138l.136.086.345.175.121.043.08.012.048.007.127.019.113.007.048.007.127.022.143.024.032.005.127.022.064.009.242.003.111-.019.14-.037.127-.023.128-.017.048-.003.047-.009.108-.033.092-.03.093-.026.031-.01.209-.085.137-.048.095-.018.141-.033.031-.008.194-.078.231-.147.145-.103.166-.1.087-.042.06-.023c.111-.044.214-.101.308-.174l.19-.122.083-.05.164-.104.082-.052.154-.117.296-.225.068-.044.385-.267.051-.04.22-.19.123-.105.171-.122.192-.12.07-.04.108-.07.101-.081.208-.18.134-.14.072-.087.089-.094.081-.1.063-.094.079-.122.129-.166.07-.126.036-.107.037-.089.124-.169.169-.174.082-.119.04-.138.019-.111.009-.047.027-.092.111-.215.074-.143a.727.727 0 01.136-.218l.124-.149.031-.037.145-.174c.08-.09.163-.21.218-.319l.238-.476.101-.202.046-.12.017-.079.008-.031.017-.095.006-.113.008-.047.026-.11.032-.108.03-.125.028-.109.062-.199.062-.131.071-.18.044-.138.047-.137.03-.109.012-.129.004-.097.006-.048.016-.112.011-.096.03-.092.038-.089.062-.131.069-.197.022-.11.006-.032.045-.138.059-.15.016-.079v-.34l.022-.11.044-.155.027-.109.009-.113.02-.094.041-.156.044-.104.021-.061.019-.078.006-.032-.011-.16-.001-.112.013-.079.006-.259-.002-.243v-.307l.005-.194.013-.063a.501.501 0 00-.002-.228zM28.812 53.062l.062-.131.037-.106.014-.063.038-.156.045-.103.166-.332.078-.159.029-.092.033-.141.036-.14.017-.045.038-.123.026-.11.007-.048.002-.178.001-.129.019-.094.046-.12.127-.33.034-.107.032-.091.045-.103.043-.121.009-.047.004-.048.016-.095.013-.08.008-.047.039-.14.059-.167.08-.158.078-.102.071-.066.053-.037.177-.077.11-.022.097.002.063.013.123.039.106.037.123.04.177.077.179.109.088.071.228.229.114.156.047.12.019.095.005.223-.01.181-.007.048-.017.128-.007.194-.016.095-.009.064-.007.129-.006.064-.025.224-.021.143-.011.112-.018.111-.012.08-.027.158-.005.032-.029.091-.109.197-.134.22-.127.206-.031.056-.144.213-.069.089-.12.131-.179.228-.17.215-.203.209-.076.059-.293.201-.191.12-.054.035-.072.034-.132.06-.042.024-.039.028-.147.1-.119.109-.074.029-.129-.002-.047-.01a.774.774 0 01-.238-.133l-.113-.135-.037-.072-.02-.061-.016-.079-.001-.047.018-.095.009-.047.035-.14.018-.127.043-.204.068-.163.101-.205zm-16.904-5.445l-.061.075-.384.579a1.763 1.763 0 00-.173.327l-.093.223-.041.088-.092.206-.04.088-.055.134-.073.162-.051.118-.039.122-.024.11-.004.081-.013.063-.011.047-.042.172-.062.093-.106.073-.258.133-.136.049-.047.008-.048.006-.094.021-.164.005h-.032l-.095-.015-.182-.064-.089-.037-.149-.094-.112-.157-.044-.138-.012-.047-.002-.047.02-.094.013-.046.063-.148.029-.058.145-.252.115-.175.058-.077.143-.233.014-.126-.066-.063-.032-.004-.065.002-.112.013-.17.091-.05.041-.19.174-.02.025-.112.138-.147.172-.02.025-.17.235-.067.11-.047.065-.157.205-.027.04-.236.243-.113.061-.047.009-.145.009-.048.003-.241.018h-.016l-.064-.01-.063-.015-.145-.069-.124-.103-.022-.024-.053-.061a.62.62 0 01-.127-.204l-.015-.062-.006-.081.005-.129.036-.107.011-.03.054-.135.05-.136.043-.138.015-.046.055-.134.052-.1.114-.156.176-.211.055-.08.094-.151.188-.282.039-.051.191-.173.194-.146.107-.072.097-.059.082-.052.292-.172.38-.178.207-.091.206-.093.232-.114.23-.118.504-.255.255-.1.123-.038.106-.039.094-.022.094-.02.123-.038.109-.028.047-.009.097-.007.063-.011.047-.011.221-.045.126-.02h.194v.001h.145l.128.013.048.005.097.005.124.034.145.07.056.056.023.043.046.186-.012.291-.022.127-.069.159a1.054 1.054 0 01-.295.223l-.147.067-.134.054-.123.077-.273.228zm15.708 1.12a.278.278 0 01.171.161l.043.138.012.047.011.047.004.242-.013.063-.019.078-.007.21.003.145-.016.095-.035.107-.053.08-.045.046-.079.056-.207.089-.122.04-.108.031-.031.008-.095.018-.329.006-.317-.007-.079-.015-.062-.017-.106-.038-.123-.076-.103-.103-.019-.026-.101-.254-.023-.094-.008-.047v-.178l.017-.095.01-.047.019-.078.042-.156.005-.048.005-.178.013-.063.03-.075.064-.093.11-.095.078-.057.081-.053c.162-.088.171-.088.337-.092l.177.011.071.036.113.136.053.081.028.04c.077.09.087.097.207.097l.064-.005.046-.013.096-.058.05-.04.029-.014.111.007zm-1.278-4.248l.014.008.182.159.043.048.123.169.026.059.037.089.123.189.022.024c.094.103.09.099.153.226l.132.259.061.149.024.093.035.174.047.137.062.131.034.073.027.076.02.078.013.063.01.064v.145h.001v.129l-.011.08-.011.047-.014.096-.04.123-.046.12-.072.144-.089.135-.049.064-.056.058-.026.018-.124.033-.177.009-.095.016-.031.007-.126.025-.107.035-.106.038-.077.024-.063.014-.063.013-.063.012-.242-.002-.048-.007-.079-.015-.061-.019-.087-.042-.112-.064-.153-.118-.106-.099-.107-.097-.057-.056-.15-.169-.078-.102-.12-.245-.032-.091-.029-.125-.008-.047-.019-.127-.004-.194-.016-.095-.039-.139-.032-.141.002-.08.019-.078.044-.188.058-.15.088-.208.095-.222.118-.192.068-.068.107-.072.197-.139.129-.097.041-.025.101-.05.09-.034.138-.045.123-.039.157-.03c.122-.009.139-.008.261.058zm-4.952-5.998l.093.204.009.08.013.079.042.122.036.072.106.235.072.126.153.228.07.108.041.05.089.094a.98.98 0 01.212.34l.04.122.031.157-.001.453-.003.162.013.063.028.076.034.073.064.131.054.152.028.109.026.093.008.031.022.094.062.149.139.198.034.035.079.102a.552.552 0 00.18.183l.095.061.131.063.25.112.162.072.072.035.068.043.331.168.105.041.109.028.046.013.031.007.275.013c.164.002.17-.002.324-.079l.118-.084.171-.172.049-.042.062-.01.118.051.086.072.201.253.103.182.01.047.003.097-.037.139-.028.04-.126.1-.223.092-.078.02-.063.014-.079.012-.194.006-.095.018-.031.008-.078.019-.105.04-.174.084-.167.099-.038.029a.824.824 0 00-.18.206l-.072.108-.106.181-.11.251-.093.188-.148.268-.052.081a1.36 1.36 0 00-.197.332l-.075.213-.005.032-.007.113-.012.063-.001.048.01.047.004.259-.007.048-.018.128-.005.129-.012.08-.01.064-.002.145.013.128.011.112.024.126.022.094.035.107.031.092.018.078c.011.135.012.269.004.404l-.005.339.003.081.006.064.003.016.033.174.02.094.025.208.004.178-.004.032-.023.143-.013.063-.015.063-.033.157-.03.109-.036.089a.524.524 0 01-.139.196l-.036.033-.081.052-.107.037-.063.014-.111.022-.112.014-.111.018-.048.006-.339.01-.096.013-.048.007-.113.008-.094.02-.031.008-.125.03-.109.029-.107.034-.126.029-.096.013-.127.019-.08.01-.111.02-.08.011-.11.022-.077.023-.12.047-.136.05-.077.022-.19.037-.016.003-.143.02h-.032l-.598.005-.34.003-.291.002-.452-.016-.031-.007-.095-.016-.129-.006-.048-.005-.159-.028-.042-.023-.122-.129-.108-.16-.061-.132-.022-.077-.017-.062-.002-.047.015-.063.009-.113.013-.063.012-.063.002-.097-.041-.154-.047-.042-.03-.011-.047-.001-.101.051-.037.031-.086.096-.052.062-.123.188-.143.289-.043.087-.127.187-.011.012-.135.115-.157.081-.047.01-.291.007-.141-.029-.106-.039-.136-.05-.095-.017h-.21l-.145-.002-.127-.02-.048-.008-.172-.042-.069-.041-.153-.144-.066-.092-.051-.118-.039-.123-.032-.174.018-.078.061-.114.045-.121.013-.063.06-.131.02-.025.191-.26.038-.071.034-.124-.002-.016-.025-.059-.064-.046-.145-.002-.031.008-.23.117-.079.056-.148.125-.106.1-.02.025-.152.228-.08.14-.035.073-.097.186-.107.161-.026.041-.058.077-.151.146-.168.094-.063.012-.161-.01-.031-.009-.092-.029-.092-.028-.141-.031-.144-.017-.064-.006-.06-.022-.18-.137-.071-.067-.103-.162-.025-.077-.013-.063-.005-.242.005-.097.034-.174.019-.044.062-.113.101-.184.117-.283.033-.073.018-.045.097-.221.062-.073.126-.1.055-.033.173-.087.178-.076.178-.075.256-.138.25-.147.161-.109.094-.062.096-.06.107-.073.091-.067.153-.118.093-.064.124-.076.073-.033.196-.073.088-.04.077-.024.091-.032.124-.032.126-.025.205-.04.046-.013.078-.022.076-.027.09-.035.079-.014.096-.013.501-.006.679-.006v.001l.711-.002.453.012.112.015.064.009.129.008.062.017.159.08.04.027.183.159.07.067.234.223.065.048.077.022h.048l.111-.058.105-.123.066-.071.028-.04.065-.13.033-.108.017-.062.007-.031.001-.113-.006-.032-.02-.24.011-.047.034-.073.042-.122.01-.08-.002-.242.004-.21.01-.047.023-.11.013-.063.015-.079-.001-.21-.006-.048-.026-.175-.006-.048-.03-.175-.012-.047-.039-.156-.007-.048-.02-.094-.011-.047-.026-.126-.01-.064-.011-.063-.019-.111-.006-.145-.014-.095-.008-.048-.006-.097-.023-.159-.009-.064-.019-.078-.013-.063-.006-.048-.025-.093-.008-.097-.002-.016-.026-.24-.001-.291-.001-.129-.008-.064-.016-.111-.015-.145-.025-.11-.034-.141-.026-.076-.025-.059-.091-.189c-.037-.073-.053-.081-.129-.113h-.031l-.045.018-.025.019-.094.187-.008.031-.033.124-.048.154-.027.109-.028.126-.005.032-.027.191-.018.111-.01.064-.022.127-.01.064-.026.143-.009.064-.007.048-.03.175-.011.047-.012.063-.01.145-.02.144v.146l.003.145.004.048.02.176.023.159.011.096.02.127.01.08.021.111.01.063.02.127.009.064.013.128.018.127.006.323.008.242.008.064-.001.176-.008.048-.009.129-.019.078-.041.105a.339.339 0 01-.2.199l-.095.009-.126-.03-.044-.019-.203-.099-.138-.044-.047-.012-.047-.01-.226-.01-.192-.015-.016-.002-.242-.009-.323-.001-.566-.004-.112-.015-.064.001-.096.014-.372.001-.062-.015-.103-.046-.266-.116-.121-.045-.101-.051-.143-.128-.102-.165-.021-.044-.071-.126-.088-.116-.044-.047-.068-.07-.138-.198-.122-.246-.043-.104-.045-.103-.11-.178-.102-.125-.121-.208-.004-.016-.028-.076-.067-.198-.033-.108-.035-.107-.024-.076-.007-.113-.005-.21-.006-.048-.016-.112-.009-.161-.006-.048-.026-.159-.006-.032-.03-.174-.002-.016c-.027-.095-.024-.192-.024-.289l.004-.323.016-.144.007-.064.013-.355.009-.08-.004-.079.002-.048.01-.063.01-.21.009-.064.023-.127.021-.111.009-.064.022-.127.008-.048.007-.113.008-.064.016-.144v-.243l.008-.291.006-.064.019-.176.005-.129.015-.079.009-.031.064-.182.156-.264c.071-.102.126-.213.17-.329l.048-.137.058-.133.033-.091.073-.179.044-.121.008-.031.028-.092.119-.247.086-.173.057-.133.064-.112.092-.152.039-.052.112-.138.096-.109.093-.112.191-.26.041-.05.1-.127.096-.109.116-.155.052-.062.213-.222.128-.146.032-.037.169-.216.065-.092.133-.162.15-.19.025-.042.072-.162.038-.089.039-.106.031-.091.069-.181.072-.179.035-.09.03-.075.024-.06.039-.089.038-.106.034-.091.024-.06a.411.411 0 01.135-.178l.161-.107.102-.048.044-.021.091-.032.092-.028.063-.013.111-.022.064-.009.129-.007.048-.005.192-.02.129-.006.048-.007.127-.023.175-.024.113-.005.047.01.122.043.102.048a.64.64 0 01.218.189l.025.042.048.102.039.123.044.155.026.174-.018.095-.019.062-.033.157-.003.145-.012.128-.006.064-.001.097.011.08.011.047.046.188.031.092.03.141.001.129v.485l-.003.145.015.111.012.063.021.094.011.047.03.125.054.185.055.116.096.186.029.092.013.047.014.079.005.145.012.063.044.138.031.092.016.079.021.111.006.097.008.048.047.137c.046.115.105.224.173.328l.122.245.07.18.031.057.125.226c.04.096.091.184.158.262zm16.619-21.748l-.042.122-.013.03-.081.228-.015.079-.004.307-.002 1.035-.002.081-.008.048-.014.063-.033.141-.029.092-.016.095-.029.142-.005.015-.029.109-.041.122-.035.107-.094.291-.012.047-.041.205-.021.061-.033.125-.027.126-.007.048-.005.097-.021.11-.041.156-.03.109-.008.097-.017.095-.014.112-.018.062-.082.157-.057.097-.064.182-.029.109-.051.135c-.08.14-.151.285-.216.433l-.046.085-.04.07-.064.131-.038.123-.029.092-.082.156-.112.177-.175.309-.062.131a1.49 1.49 0 01-.16.316l-.064.112-.08.159-.076.104-.093.09a.712.712 0 00-.21.302l-.056.151a.59.59 0 01-.123.225l-.081.079-.182.16-.159.137-.162.178-.059.096a.753.753 0 01-.254.266l-.174.117-.133.117-.037.053-.046.085-.072.126-.134.138-.152.092-.057.031-.104.077-.068.069-.044.048c-.128.136-.14.149-.331.254l-.22.135-.139.082-.13.065-.113.062-.26.127-.165.065-.152.054-.12.046-.17.092-.084.048-.257.167-.081.053-.282.119-.062.019-.047.009-.129.002a2.724 2.724 0 00-.404.003l-.016.001a.348.348 0 01-.218-.042l-.12-.048-.267-.151-.07-.066-.135-.201-.137-.238-.157-.244-.123-.15-.141-.177-.027-.04-.151-.304-.013-.046-.023-.094-.028-.109-.034-.108-.013-.063-.008-.113-.006-.048-.024-.159-.009-.047-.02-.127-.006-.404-.014-.144-.006-.064-.008-.162-.011-.063-.005-.143-.001-.111-.007-.064-.01-.21-.005-.048-.021-.208.006-.129-.02-.087-.02-.379.065-.354.006-.219.011-.118-.007-.098-.008-.048c-.008-.21-.01-.42-.002-.63l.019-.095.032-.125.034-.108.011-.063.018-.128.005-.048.003-.194v-.501l.005-.194.02-.094.033-.124.032-.108.009-.047.007-.194.002-.129.008-.064.013-.08.029-.141.032-.125.027-.126.007-.048.006-.113.012-.063.031-.108.028-.109.012-.03.123-.383.031-.092.025-.093.032-.108.055-.168.055-.168.009-.031.04-.139.045-.138.035-.107.035-.107.047-.171.034-.124.044-.138.015-.063.025-.126.003-.016.048-.169.02-.044.036-.107.072-.143.048-.065.04-.07c.032-.059.039-.122.032-.188l-.007-.031-.063-.13-.071-.064-.157-.008-.072.037-.105.076-.057.057-.132.183-.118.153-.094.131-.122.15-.033.035-.129.144-.108.141-.04.05-.055.079-.08.14-.045.155-.009.031-.034.108-.023.094-.016.046-.035.107-.039.089-.03.075a1.621 1.621 0 01-.163.315l-.098.22-.037.14-.014.046-.038.089-.038.106-.03.126-.005.048-.041.171-.05.119-.06.167-.01.047-.045.188-.036.107-.02.078-.006.048-.018.079-.004.113-.007.275-.006.064-.028.191-.009.047-.019.095-.023.127-.009.064-.007.307-.013.112-.008.048-.015.112-.028.092-.032.125-.009.031-.014.079-.003.21-.003.243-.016.095-.026.11-.029.092-.037.107-.02.061-.022.061-.012.047-.023.06-.029.109-.01.063-.007.21-.015.16-.007.097-.027.125-.032.108-.027.11-.008.031-.033.158a.635.635 0 01-.108.25l-.091.113-.063.051-.121.08-.134.089-.139.082-.137.046-.142.029-.123.038-.06.024-.322.149-.091.067-.114.114-.125.102-.253.173-.091.067-.232.2-.152.12-.105.075-.103.077-.121.107-.248.206-.064.05-.097.085-.089.07-.158.112-.158.112-.073.064-.173.17a1.49 1.49 0 01-.317.248l-.085.047-.273.139-.152.091-.138.135-.046.066-.163.2-.172.171-.152.188-.023.042-.144.252-.077.142-.069.128-.165.258-.019.026-.09.153-.068.198-.007.031-.032.158-.044.138-.093.17-.075.143-.019.061-.039.14-.033.074-.118.152-.043.02-.064.006-.048.008-.079.016-.436.008-.501-.004-.566-.008-.048-.004-.175-.028-.108-.031-.027-.017-.071-.088-.071-.161-.003-.016-.026-.175-.001-.146v-.517l-.004-.194-.005-.048-.029-.126-.097-.273-.007-.015a.975.975 0 00-.156-.244l-.143-.175-.197-.19-.1-.082-.297-.297-.062-.075-.096-.109-.091-.067-.071-.038-.127-.07-.116-.087-.06-.054-.163-.157a.563.563 0 00-.251-.14l-.125-.029-.063-.014-.031-.01-.096-.013-.093-.025-.063-.014-.106-.038-.088-.041-.138-.044-.158-.028-.129-.003-.128-.017-.08-.011-.047-.011-.11-.025-.047-.01-.111-.018-.126-.025-.168-.056-.149-.062-.139-.043-.048-.006-.194-.007-.095-.015-.031-.007-.096-.013-.107-.035-.107-.035-.109-.027-.126-.026-.11-.022-.032-.006-.095-.017-.137-.049-.103-.046-.122-.043-.063-.012-.079-.016-.063-.012-.258-.006-.129.006h-.291l-.453-.011-.355.013-.048.006-.112.014-.598.001-.144-.017-.323-.014-.21.01-.032.004-.16.017-.259.007-.064.008-.224.024-.129-.003-.145.003-.048.006-.155.044-.063.014-.129.008-.08.012-.096.003-.128-.015-.129-.009-.047-.011-.093-.028-.092-.031-.092-.03-.092-.031-.091-.032-.059-.025-.23-.073-.2-.063-.1-.053-.126-.072-.124-.034-.097-.004-.048-.005-.16-.023-.063-.015-.062-.017-.046-.013-.015-.007-.135-.052-.074-.032-.241-.092-.15-.059-.042-.023-.188-.153-.253-.25a.946.946 0 00-.25-.175l-.101-.051-.172-.144-.009-.013a.658.658 0 00-.245-.205l-.085-.047a.685.685 0 01-.205-.181l-.162-.18-.122-.129-.059-.076-.063-.094a2.212 2.212 0 00-.224-.296l-.154-.227-.147-.305-.055-.151-.04-.123-.057-.134-.054-.117-.047-.103-.033-.107-.006-.032-.013-.192.008-.031.002-.145-.011-.047-.052-.219-.031-.092-.026-.093-.029-.092-.034-.157-.006-.032-.022-.11-.023-.127-.009-.08-.021-.176-.004-.048v-.194l.009-.064.01-.064.014-.129.039-.123.015-.046.031-.125.028-.126.008-.048.019-.078.018-.062.033-.157.005-.048.017-.176.003-.275.055-.234.053-.135.024-.126-.002-.113.001-.178.02-.094.046-.12.045-.121.017-.095.002-.097.008-.113.028-.093.043-.122.021-.078.036-.157.069-.181.069-.163.035-.107.018-.095.009-.047.031-.109.026-.076.04-.088.105-.182.141-.235.032-.056.121-.151.114-.115.059-.077.115-.195.059-.15.016-.079.008-.097.054-.185.085-.191.12-.21.049-.064c.077-.09.165-.171.258-.244l.137-.136.061-.075.237-.265.033-.036.074-.106.073-.144.06-.095.112-.115.187-.155.036-.033.058-.056.264-.212a.805.805 0 00.228-.226.974.974 0 01.248-.252l.171-.169a.746.746 0 01.22-.21l.107-.072.253-.141.104-.045a.92.92 0 00.278-.191l.264-.262.07-.067.186-.127.21-.082.26-.127.188-.126.111-.067.26-.131.27-.105.107-.035.106-.039.107-.037.124-.037.135-.052.117-.054.12-.048.123-.039.141-.033.064-.01.154-.046.062-.018.141-.032.062-.016.015-.005.171-.045.124-.033.031-.008.095-.017.242-.004h.517l.146-.002.127-.02.11-.024.124-.036.107-.036.199-.065.094-.021.208-.017.032.006.046.014.11.026.094.024.126.024.21.005h.437l.096.011.048.007.129.007.08.018.109.027.109.027.031.008.079.015.42.001.095-.016.047-.01.078-.019.155-.043.064-.007.111-.017.128-.014.067-.011.108-.032.11-.024.226.004.047.01.142.025.222-.029.11-.025.095-.017.062-.016.031-.009.171-.045.109-.029.032-.009.095-.018.081-.005.063-.012.047-.012.203-.05.046-.014.112-.013.095-.018.113-.005.14-.036.097-.057.038-.029.171-.121.168-.097.164-.103c.099-.075.207-.135.318-.19l.289-.176.152-.144.114-.156.214-.22.054-.035.138-.085.09-.068.012-.011c.144-.141.155-.156.232-.325l.026-.059.042-.087c.049-.09.109-.172.181-.246.071-.073.201-.243.277-.377l.044-.086.101-.183.169-.256.066-.092.056-.057.143-.131.053-.061.084-.098.085-.074c.095-.071.182-.151.259-.242l.06-.076.171-.17.152-.144.101-.121.095-.118.118-.048.101.02.074.045.029.013.102.049.092.029.109.083.065.112.09.121.112-.063.051-.039.024-.021.062-.146.046-.179.041-.122.01-.047.021-.111.001-.064-.018-.111-.023-.11-.029-.126-.035-.107-.001-.032-.035-.089.052-.165.114-.121.193-.171c.079-.067.168-.116.26-.161l.115-.059.112-.064.317-.159.231-.115.13-.064.134-.055.093-.027.047-.013.079-.014.194-.006.095-.016.031-.007.203-.049.093-.024.11-.025.113-.006.095-.018.14-.037.125-.031.064-.01.226-.007h1.132l.226.007.094.02.134.039.139.04.123.038.122.042.031.01.159.029.048.004.162.001.501.002.113.003.095.018.015.005.182.062.225.127.149.097.23.117.166.063.229.119c.111.077.228.142.349.202l.212.117.081.052.153.143.085.097.099.082.065.048a.667.667 0 01.185.178l.121.152.021.024.158.112.071.038.179.137.065.092.081.158.052.082.17.194.084.075.214.197.083.119.063.148.032.091.029.092.027.126.023.11.004.016c.01.099.059.183.105.269l.175.271.15.19.074.085.046.066.059.096.147.269.07.109.136.201.126.188.063.094.15.268c.049.096.109.186.183.265l.146.193.119.173.134.162.069.089.209.326.044.104.037.14.028.109.028.092.032.108.029.109.079.211.07.163.052.118.063.112.11.179.02.044.071.18.098.185.125.188c.055.086.105.176.132.275l.042.122.036.107.013.063.003.178.001.194.014.079.008.031.012.096.025.093.016.062.04.106.093.188.128.261.066.164.016.062.037.19.008.031.015.063.024.127.009.064.021.127.013.096.022.127.01.064.009.064.026.159.011.08.002.176-.008.048-.002.145.007.048.017.112.007.21.017.127.004.016.012.096.027.093.011.047.048.137.038.123.045.138.041.122.01.047.007.064.02.095.003.097.007.162.006.048.021.175-.007.112z" fill="#231815"/></svg>